<svg xmlns="http://www.w3.org/2000/svg" width="269.80939222025188" height="294.86120859853048" abd_height="2.9486120859853049" abd_width="2.6980939222025189" version="1.1">
    <defs>
        <style>
            .cls-dm-1 { 
                fill:#007bc6;
            }

            .cls-dm-1--low { 
                fill:#e8194d;
            }

            .cls-dm-1--high { 
                fill:#1ca547;
            }
        </style>
    </defs>
    <clipPath id="fillclip" class="sClipPath">
        <path d="M 10.3540 284.6921 L 10.3540 284.6921 L 134.4889 11.1866 L 135.2359 10.3223 L 136.3318 10.0000 L 196.1401 10.0000 L 197.0111 10.2334 L 197.2445 11.1044 L 197.2445 34.1108 L 197.2445 34.7697 L 197.0111 284.6278 z "/>
    </clipPath>
    <g class="sSymbol">
        <path fill="#ffffff" stroke="rgba(255,255,255,0.000)" stroke-width="3" d="M 207.2445 9.7879 L 207.2445 9.7879 L 207.2445 24.2786 L 260.0215 24.2786 L 264.9154 25.5900 L 268.4981 29.1726 L 269.8094 34.8139 L 268.4981 39.7078 L 264.9154 43.2905 L 260.0215 44.6018 L 207.2445 44.6018 L 207.2445 285.0733 L 205.9332 289.9672 L 202.3506 293.5499 L 197.4566 294.8612 L 9.7620 294.8612 L 5.0750 293.6660 L 1.5326 290.3723 L 0.0000 285.7845 L 0.8515 281.0230 L 125.9812 5.7377 L 129.5927 1.5585 L 134.8918 0.0000 L 197.4566 0.0000 L 202.3506 1.3113 L 205.9332 4.8940 z "/>
        <path fill="#ffffff" stroke="#231f20" stroke-width="3" d="M 10.3540 284.6921 L 10.3540 284.6921 L 134.4889 11.1866 L 135.2359 10.3223 L 136.3318 10.0000 L 196.1401 10.0000 L 197.0111 10.2334 L 197.2445 11.1044 L 197.2445 34.1108 L 258.7049 34.1108 L 258.7049 34.7697 L 197.2445 34.7697 L 197.0111 284.6278 z "/>
        <rect class="cls-dm-1 sScaleY sStyle" width="100%" clip-path="url('#fillclip')" />
    </g>
</svg>
