<svg xmlns="http://www.w3.org/2000/svg" xmlns:svg="http://www.w3.org/2000/svg" viewBox="0 0 110 110">
    <defs id="defs13197">
      <style>
        .stop-1 {
          stop-color: #efe977;
        }

        .stop-1--high {
          stop-color: #a00;
        }

        .stop-1--low {
          stop-color: #007bc6;
        }
        
        .stop-2 {
          stop-color: #fffccc;
        }

        .stop-2--high {
          stop-color: #f55;
        }

        .stop-2--low {
          stop-color: #83d0fc;
        }
        
        .stop-3 {
          stop-color: #fff31e;
        }

        .stop-3--high {
          stop-color: #ff2a2a;
        }

        .stop-3--low {
          stop-color: #3ab7ff;
        }
        
        
      </style>
        <linearGradient id="linearGradient12536" x1="1387" x2="1480.7" y1="706.17" y2="706.17" gradientUnits="userSpaceOnUse">
            <stop id="stop9459" offset="0" style="stop-color:#d0d0d0"/>
            <stop id="stop9461" offset="1" style="stop-color:#f2f2f2"/>
        </linearGradient>
        <linearGradient id="linearGradient12538" x1="849.13" x2="798.3" y1="712.36" y2="711.48" gradientTransform="translate(610.33 -19.625)" gradientUnits="userSpaceOnUse">
            <stop id="stop9335" offset="0" class="stop-1 sColor"/>
            <stop id="stop9337" offset="1" class="stop-2 sColor"/>
        </linearGradient>
        <radialGradient id="radialGradient12540" cx="1179.9" cy="806.77" r="39.871" gradientUnits="userSpaceOnUse">
            <stop id="stop9329" offset="0" class="stop-3 sColor"/>
            <stop id="stop9331" offset="1" class="stop-1 sColor"/>
        </radialGradient>
        <linearGradient id="linearGradient12542" x1="1170.7" x2="1186.5" y1="693.08" y2="693.08" gradientTransform="translate(244,-2)" gradientUnits="userSpaceOnUse">
            <stop id="stop9384" offset="0" style="stop-color:white"/>
            <stop id="stop9386" offset="1" style="stop-color:white;stop-opacity:0"/>
        </linearGradient>
        <radialGradient id="radialGradient12544" cx="1070.1" cy="1008.4" r="58.865" gradientTransform="matrix(1 0 0 0.2 0 806.69)" gradientUnits="userSpaceOnUse">
            <stop id="stop9469" offset="0" style="stop-color:black"/>
            <stop id="stop9471" offset="1" style="stop-color:black;stop-opacity:0"/>
        </radialGradient>
        <clipPath id="temp-outline" class="sClipPath">
          <path d="m1409.5 625.66v152.97c0 11.987 9.6689 21.656 21.656 21.656h5.7813c11.987 0 21.656-9.669 21.656-21.656v-152.72c-6.8688 1.3372-15.103 2.125-23.969 2.125-9.3753 0-18.031-0.89378-25.125-2.375z"/>
        </clipPath>
    </defs>
    <g id="layer1" class="sSymbol" transform="translate(-179.29 -340.22)">
        <g id="hot" transform="translate(-408.75 -404.31)">
            <rect id="rect9631" width="110" height="110" x="588.04" y="744.53" style="opacity:0;color:black;stroke-width:6.8"/>
            <g id="g9507" transform="matrix(.27387 0 0 .27387 211.34 606.65)">
                <g id="g9491">
                    <path id="path9349" d="m1430.5 538.23c-11.987 0-21.625 9.669-21.625 21.656v227.5c0 0.052-0.0004 0.10435 0 0.15625-13.168 8.3005-21.906 22.972-21.906 39.688 0 25.892 20.983 46.875 46.875 46.875s46.875-20.983 46.875-46.875c0-17.082-9.1296-32.024-22.781-40.219v-227.12c0-11.987-9.6376-21.656-21.625-21.656h-5.8124z" style="opacity:.98471;color:black;fill:url(#linearGradient12536)"/>
                    <g id="g9345" transform="translate(0,10)">
                        <path id="rect9247" class="sTranslateY" translate-offset="30" clip-path="url(#temp-outline)" 
                          d="m1409.5 625.66v152.97c0 11.987 9.6689 21.656 21.656 21.656h5.7813c11.987 0 21.656-9.669 21.656-21.656v-152.72c-6.8688 1.3372-15.103 2.125-23.969 2.125-9.3753 0-18.031-0.89378-25.125-2.375z" style="opacity:.98471;color:black;fill:url(#linearGradient12538)"/>
                        <path id="path9249" d="m1229.4 817.95c0 22.02-17.851 39.871-39.871 39.871s-39.871-17.851-39.871-39.871 17.851-39.871 39.871-39.871 39.871 17.851 39.871 39.871z" style="opacity:.98471;color:black;fill:url(#radialGradient12540)" transform="matrix(1.1758 0 0 1.1758 35.756 -143.29)"/>
                    </g>
                    <path id="path9353" d="m1430.2 538.47c-12.525 0-22.625 10.133-22.625 22.656v227.16c-13.174 8.5307-21.906 23.332-21.906 40.188 0 26.432 21.443 47.875 47.875 47.875s47.875-21.443 47.875-47.875c0-17.221-9.1262-32.284-22.781-40.719v-226.62c0-12.523-10.1-22.656-22.625-22.656h-5.8124zm0 2h5.8124c11.45 0 20.625 9.2049 20.625 20.656v227.12 0.5625l0.5 0.28125c13.36 8.0202 22.281 22.65 22.281 39.375 0 25.352-20.523 45.875-45.875 45.875s-45.875-20.523-45.875-45.875c0-16.367 8.5504-30.72 21.438-38.844l0.4688-0.28125v-0.5625c-0.0004-0.0416 0-0.0991 0-0.15625v-227.5c0-11.451 9.1753-20.656 20.625-20.656z" style="opacity:.98471;block-progression:tb;text-indent:0;color:black;text-transform:none;fill:#333"/>
                    <rect id="rect9394" width="16.11" height="194.57" x="1412.6" y="585.64" ry="8.0552" style="opacity:.98471;color:black;fill:url(#linearGradient12542)"/>
                </g>
            </g>
        </g>
    </g>
</svg>
