<svg xmlns="http://www.w3.org/2000/svg" width="170.19339528409455" height="283.38331593358112" abd_height="2.833833159335811" abd_width="1.7019339528409456" version="1.1">
    <defs>
        <style>
            .cls-tw-1 { 
                fill:#007bc6;
            }

            .cls-tw-1--low { 
                fill:#e8194d;
            }

            .cls-tw-1--high { 
                fill:#1ca547;
            }
        </style>
    </defs>
    <clipPath id="fill-tower" class="sClipPath">
        <path d="M 54.1994 272.0462 L 54.1994 272.0462 L 85.0967 273.3928 L 115.9940 272.0462 L 109.8792 235.8557 L 106.7493 206.1880 L 108.8008 164.9477 L 111.4701 149.2721 L 113.0090 142.1182 L 119.6698 119.7096 L 160.1934 35.3353 L 160.1934 33.3364 L 157.4581 27.8658 L 150.7250 22.3951 L 140.4149 17.6609 L 120.8468 12.1903 L 85.0967 9.9810 L 49.3466 12.1903 L 29.7785 17.6609 L 19.4684 22.3951 L 12.7353 27.8658 L 10.0000 33.3364 L 10.0000 35.3353 L 50.5236 119.7096 L 57.1844 142.1182 L 58.7233 149.2721 L 61.3926 164.9477 L 63.4441 206.1880 L 60.3142 235.8557 z "/>
    </clipPath>
    <g class="sSymbol">
        <path fill="#ffffff" stroke="rgba(255,255,255,.000)" d="M 44.3086 270.5718 L 44.3086 270.5718 L 50.4085 234.4355 L 53.4179 205.9101 L 51.4320 165.9891 L 50.2716 158.7365 L 47.4730 144.5234 L 41.2532 123.5056 L 0.9858 39.6647 L 0.0000 35.3353 L 0.0000 33.3364 L 1.0557 28.8643 L 3.7911 23.3936 L 6.4294 20.1046 L 15.2955 13.3074 L 27.0860 8.0302 L 48.7298 2.2093 L 84.4799 0.0000 L 121.4636 2.2093 L 144.5878 8.5732 L 154.8979 13.3074 L 163.7640 20.1046 L 166.4023 23.3936 L 169.1377 28.8643 L 170.1934 33.3364 L 170.1934 35.3353 L 169.2076 39.6647 L 128.9402 123.5056 L 122.7204 144.5234 L 121.2812 151.2133 L 118.7614 165.9891 L 116.7755 205.9101 L 119.7849 234.4355 L 125.8848 270.5718 L 125.1635 276.0362 L 121.6566 280.2884 L 116.4295 282.0367 L 85.5321 283.3833 L 53.7639 282.0367 L 48.5368 280.2884 L 45.0299 276.0362 z "/>
        <path fill="#ffffff" clip-path="url(#fill-tower)" stroke="#231f20" stroke-width="2" d="M 54.1994 272.0462 L 54.1994 272.0462 L 85.0967 273.3928 L 115.9940 272.0462 L 109.8792 235.8557 L 106.7493 206.1880 L 108.8008 164.9477 L 111.4701 149.2721 L 113.0090 142.1182 L 119.6698 119.7096 L 160.1934 35.3353 L 160.1934 33.3364 L 157.4581 27.8658 L 150.7250 22.3951 L 140.4149 17.6609 L 120.8468 12.1903 L 85.0967 9.9810 L 49.3466 12.1903 L 29.7785 17.6609 L 19.4684 22.3951 L 12.7353 27.8658 L 10.0000 33.3364 L 10.0000 35.3353 L 50.5236 119.7096 L 57.1844 142.1182 L 58.7233 149.2721 L 61.3926 164.9477 L 63.4441 206.1880 L 60.3142 235.8557 z "/>
        <rect class="cls-tw-1 sScaleY sStyle" width="100%" clip-path="url(#fill-tower)" />
    </g>
</svg>
