<svg xmlns="http://www.w3.org/2000/svg" xmlns:xlink="http://www.w3.org/1999/xlink" width="80" height="213" version="1.1" viewBox="0 0 80 213">
    <defs>
        <linearGradient id="paint0_linear" x2="1" gradientTransform="matrix(12.7059 0 -2.46184e-08 3.61062 -1.14948e-07 98.1947)" gradientUnits="userSpaceOnUse">
            <stop stop-color="white" stop-opacity="0.8"/>
            <stop offset="1" stop-color="#C4C4C4" stop-opacity="0"/>
        </linearGradient>
        <radialGradient id="paint1_radial" cx="0.5" cy="0.5" r="0.5" gradientTransform="matrix(41.6087 30.087 39.9278 -55.218 -28.0726 30.022)" gradientUnits="userSpaceOnUse">
            <stop offset="0.16792" stop-color="white" stop-opacity="0.86"/>
            <stop offset="1" stop-color="#C4C4C4" stop-opacity="0"/>
        </radialGradient>
        <style>
            .fill-class {
                fill: #fff31e;
            }

            .fill-class--high {
                fill: #D32B2B;
            }

            .fill-class--low {
                fill: #007bc6;
            }
        </style>
        <clipPath id="temp-outline" class="sClipPath">
            <path fill-rule="evenodd" d="M 20.5 138.64L 20.2504 138.784C 8.44248 145.615 0.5 158.38 0.5 173C 0.5 194.815 18.1848 212.5 40 212.5C 61.8153 212.5 79.5 194.815 79.5 173C 79.5 158.38 71.5575 145.615 59.7496 138.784L 59.5 138.64L 59.5 138.351L 59.5 20C 59.5 9.23045 50.7696 0.5 40 0.5C 29.2304 0.5 20.5 9.23045 20.5 20L 20.5 138.351L 20.5 138.64Z" clip-rule="evenodd"/>
        </clipPath>
    </defs>
    <g id="Canvas" fill="none" class="sSymbol">
        <g id="Group 2">
            <g id="Union">
                <path fill-rule="evenodd" d="M 20.5 138.64L 20.2504 138.784C 8.44248 145.615 0.5 158.38 0.5 173C 0.5 194.815 18.1848 212.5 40 212.5C 61.8153 212.5 79.5 194.815 79.5 173C 79.5 158.38 71.5575 145.615 59.7496 138.784L 59.5 138.64L 59.5 138.351L 59.5 20C 59.5 9.23045 50.7696 0.5 40 0.5C 29.2304 0.5 20.5 9.23045 20.5 20L 20.5 138.351L 20.5 138.64Z" clip-rule="evenodd"/>
                <rect class="fill-class sScaleY sStyle" width="100%" clip-path="url(#temp-outline)" />
                <path fill-rule="evenodd" stroke="#BFBFBF" stroke-miterlimit="8" d="M 20.5 138.64L 20.2504 138.784C 8.44248 145.615 0.5 158.38 0.5 173C 0.5 194.815 18.1848 212.5 40 212.5C 61.8153 212.5 79.5 194.815 79.5 173C 79.5 158.38 71.5575 145.615 59.7496 138.784L 59.5 138.64L 59.5 138.351L 59.5 20C 59.5 9.23045 50.7696 0.5 40 0.5C 29.2304 0.5 20.5 9.23045 20.5 20L 20.5 138.351L 20.5 138.64Z" clip-rule="evenodd"/>
            </g>
            <g id="Rectangle">
                <rect width="9" height="113" fill="url(#paint0_linear)" rx="4.5" transform="translate(27 17)"/>
            </g>
            <g id="Ellipse">
                <circle cx="36.5" cy="36.5" r="36.5" fill="url(#paint1_radial)" transform="translate(3 136)"/>
            </g>
        </g>
    </g>
</svg>
